<svg width="256" height="46" viewBox="0 0 256 46" fill="none" xmlns="http://www.w3.org/2000/svg">
<path d="M48.2084 10.691C48.3128 10.9726 48.3911 11.3055 48.4433 11.6895C48.8869 15.0693 49.422 18.1803 50.0483 21.0224C50.6747 23.8645 51.288 26.3481 51.8883 28.4733C52.4885 30.5728 52.9975 32.2755 53.415 33.5814C53.8587 34.8872 54.0936 35.7065 54.1197 36.0394C54.1458 36.5259 53.9892 37.0124 53.6499 37.4989C53.3106 37.9853 52.867 38.4206 52.3189 38.8047C51.7708 39.1887 51.1706 39.5088 50.5181 39.7649C49.8656 40.0209 49.2654 40.1745 48.7173 40.2257C48.2736 40.2513 47.8952 40.2001 47.582 40.0721C47.2427 39.9441 46.9948 39.7008 46.8382 39.3424C46.6555 38.9327 46.4859 38.4974 46.3293 38.0365C46.1727 37.5501 46.0161 36.9868 45.8595 36.3466C45.6246 35.4249 45.3767 34.964 45.1157 34.964C44.8286 34.9896 44.5285 35.4377 44.2153 36.3082C43.7977 37.5117 43.3149 38.523 42.7668 39.3424C42.2449 40.1617 41.6446 40.8146 40.966 41.3011C40.3136 41.8132 39.622 42.1845 38.8912 42.4149C38.1865 42.6454 37.4297 42.7862 36.6206 42.8374C34.1674 43.0166 32.0142 42.2357 30.1612 40.4946C28.3082 38.7279 26.7684 36.0906 25.5418 32.5828C25.3591 32.1731 25.2156 31.9171 25.1112 31.8147C25.0068 31.7122 24.8893 31.661 24.7588 31.661C24.6283 31.6866 24.4978 31.7634 24.3673 31.8915C24.2369 32.0195 24.1194 32.2627 24.015 32.6212C23.5191 34.3367 22.8928 35.7962 22.1359 36.9996C21.4052 38.2286 20.6092 39.24 19.7479 40.0337C18.9128 40.8274 18.0385 41.4291 17.125 41.8388C16.2116 42.2485 15.3242 42.4789 14.4629 42.5301C12.897 42.6582 11.4225 42.1973 10.0392 41.1475C8.65602 40.0977 7.37719 38.4334 6.20276 36.1546C5.00222 33.8758 3.89303 30.9569 2.87519 27.3979C1.85735 23.8389 0.90475 19.6013 0.017399 14.6853C-0.0869952 13.3026 0.278385 12.304 1.11354 11.6895C1.92259 11.075 3.07093 10.7166 4.55855 10.6141C5.52419 10.5373 6.2941 10.6782 6.86827 11.0366C7.44244 11.4207 7.79477 11.9456 7.92526 12.6113C8.52553 16.1191 9.13884 19.2429 9.76521 21.9825C10.3916 24.7222 11.0049 27.0266 11.6052 28.8957C12.2315 30.7649 12.8579 32.1731 13.4843 33.1205C14.1367 34.0935 14.8022 34.5543 15.4808 34.5031C15.8201 34.4775 16.2246 34.1959 16.6944 33.6582C17.1641 33.1461 17.6339 32.2243 18.1037 30.8929C18.5735 29.5615 19.0302 27.7563 19.4739 25.4775C19.9175 23.1987 20.296 20.2926 20.6092 16.7592C20.6875 15.7862 21.105 15.0181 21.8619 14.4548C22.6187 13.8659 23.5713 13.5331 24.7197 13.4562C26.0507 13.3538 26.9772 13.4946 27.4992 13.8787C28.0472 14.2372 28.3865 14.9029 28.517 15.8759C28.7519 17.5658 29.052 19.2301 29.4174 20.8687C29.8089 22.533 30.2395 24.1077 30.7093 25.5928C31.2052 27.0778 31.7141 28.4477 32.2361 29.7023C32.7841 30.9569 33.3453 32.0451 33.9194 32.9669C34.4936 33.8886 35.0547 34.6055 35.6028 35.1176C36.1769 35.6041 36.712 35.8346 37.2078 35.809C37.8603 35.7577 38.4606 35.2585 39.0086 34.3111C39.5306 33.3637 39.9743 32.0579 40.3397 30.3936C40.705 28.7293 40.9399 26.7322 41.0443 24.4022C41.1487 22.0978 41.0835 19.5245 40.8486 16.6824C40.8225 16.1959 40.7833 15.7222 40.7311 15.2614C40.6528 14.8005 40.6007 14.314 40.5746 13.8019C40.4963 13.0338 40.5615 12.3937 40.7703 11.8816C40.9791 11.3695 41.3053 10.9598 41.749 10.6525C42.1927 10.3453 42.7016 10.1149 43.2758 9.96123C43.876 9.8076 44.5285 9.70518 45.2331 9.65397C45.8856 9.60277 46.4076 9.61557 46.7991 9.69238C47.1905 9.74359 47.5037 9.84601 47.7386 9.99963C47.9474 10.1789 48.104 10.4093 48.2084 10.691Z" fill="#BA93DF"/>
<path d="M96.4978 11.1373H122.457V17.5043H128.947V23.8713H122.457V17.5043H96.4978V11.1373ZM122.457 36.6053V30.2383H128.947V36.6053H122.457ZM96.4978 42.9723V36.6053H122.457V42.9723H96.4978ZM109.477 30.2383V23.8713H122.457V30.2383H109.477Z" fill="#444795"/>
<path d="M208.13 34.4168L210.049 35.9404C209.014 38.45 207.369 40.5712 205.116 42.3039C202.923 44.0367 200.913 44.9031 199.086 44.9031C197.32 44.9031 195.919 44.3056 194.884 43.1106C193.848 41.8558 193.331 40.2425 193.331 38.2707C193.331 36.2989 193.666 33.7595 194.336 30.6524C191.473 35.074 188.397 38.5396 185.109 41.0492C181.82 43.5587 179.049 44.8135 176.795 44.8135C173.385 44.8135 171.679 42.8118 171.679 38.8085C171.679 34.8051 173.08 29.4275 175.882 22.6756C178.744 15.864 180.784 11.9801 182.003 11.0241L186.388 12.9063C183.891 16.8499 182.003 20.7337 180.724 24.5578C179.445 28.3819 178.805 30.9512 178.805 32.2657C178.805 33.5205 179.201 34.5363 179.993 35.313C180.845 36.0898 181.82 36.4782 182.916 36.4782C185.352 36.4782 188.367 34.2973 191.96 29.9354C195.615 25.5138 199.33 18.9412 203.106 10.2175L207.765 12.2789C207.643 12.7569 206.242 16.2225 203.563 22.6756C200.944 29.1288 199.634 33.0126 199.634 34.3271C199.634 35.5819 199.908 36.5379 200.457 37.1952C201.066 37.8525 201.644 38.1811 202.192 38.1811C202.801 38.1811 203.258 38.1512 203.563 38.0915C203.867 38.0317 204.172 37.9122 204.476 37.733C204.781 37.5537 205.024 37.4043 205.207 37.2848C205.451 37.1653 205.725 36.9562 206.029 36.6574L206.76 35.9404C206.882 35.8209 207.095 35.5819 207.4 35.2234C207.765 34.8052 208.009 34.5363 208.13 34.4168ZM202.832 0.268884L205.572 1.70291C204.354 3.5552 202.771 5.19837 200.822 6.6324C198.934 8.06643 197.046 8.78345 195.158 8.78345C193.27 8.78345 191.29 8.09631 189.22 6.72203C187.149 5.28799 185.474 3.85396 184.195 2.41993L187.118 0C190.286 3.04732 192.874 4.57098 194.884 4.57098C197.99 4.57098 200.639 3.13695 202.832 0.268884Z" fill="#F55995"/>
<path d="M255.82 43.437C255.94 43.437 256 43.6134 256 43.9662C256 44.319 255.94 44.4954 255.82 44.4954C254.202 44.4954 252.913 44.466 251.954 44.4072L247.189 44.319L241.975 44.4072C241.076 44.466 239.817 44.4954 238.199 44.4954C238.019 44.4954 237.929 44.319 237.929 43.9662C237.929 43.6134 238.019 43.437 238.199 43.437C239.697 43.437 240.806 43.29 241.526 42.996C242.245 42.702 242.724 42.1434 242.964 41.3202C243.264 40.4382 243.413 39.1151 243.413 37.3511V28.4427H226.512V37.3511C226.512 39.1151 226.631 40.4382 226.871 41.3202C227.111 42.1434 227.59 42.702 228.31 42.996C229.029 43.29 230.138 43.437 231.636 43.437C231.756 43.437 231.816 43.6134 231.816 43.9662C231.816 44.319 231.756 44.4954 231.636 44.4954C230.018 44.4954 228.729 44.466 227.77 44.4072L223.005 44.319L217.881 44.4072C216.982 44.466 215.693 44.4954 214.015 44.4954C213.835 44.4954 213.745 44.319 213.745 43.9662C213.745 43.6134 213.835 43.437 214.015 43.437C215.513 43.437 216.622 43.29 217.341 42.996C218.061 42.702 218.54 42.1434 218.78 41.3202C219.08 40.4382 219.229 39.1151 219.229 37.3511V17.5939C219.229 15.8299 219.08 14.5363 218.78 13.713C218.54 12.831 218.061 12.243 217.341 11.949C216.682 11.655 215.603 11.508 214.105 11.508C213.925 11.508 213.835 11.3316 213.835 10.9788C213.835 10.626 213.925 10.4496 214.105 10.4496C215.723 10.4496 216.982 10.479 217.881 10.5378L223.005 10.626L227.86 10.5378C228.819 10.479 230.078 10.4496 231.636 10.4496C231.756 10.4496 231.816 10.626 231.816 10.9788C231.816 11.3316 231.756 11.508 231.636 11.508C230.138 11.508 229.029 11.6844 228.31 12.0372C227.59 12.39 227.111 13.0074 226.871 13.8895C226.631 14.7127 226.512 16.0063 226.512 17.7703V26.5023H243.413V17.5939C243.413 15.8299 243.264 14.5363 242.964 13.713C242.724 12.831 242.245 12.243 241.526 11.949C240.866 11.655 239.787 11.508 238.289 11.508C238.109 11.508 238.019 11.3316 238.019 10.9788C238.019 10.626 238.109 10.4496 238.289 10.4496C239.907 10.4496 241.166 10.479 242.065 10.5378L247.189 10.626L252.044 10.5378C253.003 10.479 254.262 10.4496 255.82 10.4496C255.94 10.4496 256 10.626 256 10.9788C256 11.3316 255.94 11.508 255.82 11.508C254.322 11.508 253.213 11.6844 252.494 12.0372C251.775 12.39 251.295 13.0074 251.055 13.8895C250.816 14.7127 250.696 16.0063 250.696 17.7703V37.3511C250.696 39.1151 250.816 40.4382 251.055 41.3202C251.295 42.1434 251.775 42.702 252.494 42.996C253.213 43.29 254.322 43.437 255.82 43.437Z" fill="#00B694"/>
<path d="M81.4625 25.4151V43.5855H88.9157V9.4387L66.9774 30.0236V11.8531H59.5242V46L81.4625 25.4151Z" fill="#FF582D"/>
<path fill-rule="evenodd" clip-rule="evenodd" d="M140.82 43.3915C142.742 44.3111 144.898 44.771 147.288 44.771C149.21 44.771 150.921 44.4491 152.421 43.8054C153.921 43.1616 155.162 42.2419 156.147 41.0463C156.752 40.3176 157.244 39.5097 157.624 38.6225V41.1154C157.624 42.219 157.928 43.0926 158.537 43.7363C158.913 44.105 159.369 44.36 159.905 44.5014C160.238 44.5891 160.603 44.6331 160.997 44.6331C162.076 44.6331 162.896 44.3341 163.459 43.7363C164.021 43.0926 164.303 42.219 164.303 41.1154V23.3888C164.303 20.262 163.81 17.7099 162.826 15.7326C161.841 13.7554 160.319 12.2839 158.256 11.3183C156.241 10.3526 153.663 9.86983 150.523 9.86983C148.741 9.86983 146.843 10.0767 144.828 10.4906C142.812 10.9044 140.773 11.5942 138.711 12.5598C137.961 12.8357 137.422 13.2496 137.094 13.8014C136.813 14.3532 136.672 14.928 136.672 15.5258C136.719 16.0776 136.907 16.6064 137.234 17.1122C137.563 17.572 138.008 17.8709 138.571 18.0088C139.133 18.1467 139.812 18.0319 140.609 17.664C142.343 16.7903 144.008 16.1695 145.601 15.8017C147.242 15.4338 148.812 15.2499 150.311 15.2499C152.889 15.2499 154.74 15.8246 155.865 16.9742C156.99 18.1238 157.553 20.0091 157.553 22.6301V24.4235H155.162C150.101 24.4235 146.069 24.7453 143.07 25.3892C140.117 25.9869 137.984 27.0215 136.672 28.493C135.406 29.9185 134.774 31.8727 134.774 34.3558C134.774 36.3331 135.313 38.1034 136.391 39.6669C137.469 41.2303 138.945 42.4718 140.82 43.3915ZM157.553 28.6999H155.233C151.858 28.6999 149.186 28.8608 147.218 29.1827C145.25 29.5046 143.844 30.0564 143 30.8381C142.203 31.5738 141.804 32.6085 141.804 33.942C141.804 35.6893 142.414 37.1148 143.632 38.2184C144.851 39.276 146.539 39.8048 148.695 39.8048C150.429 39.8048 151.952 39.414 153.264 38.6322C154.576 37.8045 155.608 36.701 156.358 35.3215C157.154 33.942 157.553 32.3556 157.553 30.5622V28.6999Z" fill="#FCD06B"/>
</svg>
