<svg width="1272" height="245" viewBox="0 0 1272 245" fill="none" xmlns="http://www.w3.org/2000/svg">
<path d="M1171.75 83.3871H1181.76L1151.28 139.546C1150.44 141.108 1149.6 142.43 1148.76 143.512C1147.97 144.594 1147.07 145.495 1146.05 146.216C1145.09 146.937 1143.98 147.448 1142.71 147.749C1141.45 148.109 1140.01 148.289 1138.39 148.289H1131.26L1132.8 140.537H1141.36L1145.78 132.244L1138.66 83.3871H1147.85L1150.65 104.21L1152.36 121.427H1152.81L1161.02 104.21L1171.75 83.3871Z" fill="#F55995"/>
<path d="M1085.78 83.3871H1096.6L1104.89 106.103H1105.07L1122.66 83.3871H1133.75L1124.37 130.261H1115.35L1122.39 95.2858H1121.93L1117.7 101.055L1102.19 121.067L1094.97 101.145L1092.9 95.2858H1092.45L1085.42 130.261H1076.4L1085.78 83.3871Z" fill="#F55995"/>
<path d="M1048.73 131.343C1043.44 131.343 1039.17 129.69 1035.93 126.385C1032.68 123.08 1031.06 118.272 1031.06 111.962C1031.06 107.936 1031.66 104.12 1032.86 100.514C1034.06 96.9083 1035.72 93.7534 1037.82 91.0491C1039.99 88.3448 1042.54 86.2115 1045.49 84.649C1048.43 83.0865 1051.68 82.3053 1055.22 82.3053C1060.51 82.3053 1064.78 83.9579 1068.03 87.2631C1071.27 90.5683 1072.9 95.3759 1072.9 101.686C1072.9 105.772 1072.3 109.618 1071.09 113.224C1069.89 116.77 1068.21 119.895 1066.04 122.599C1063.94 125.303 1061.42 127.437 1058.47 128.999C1055.52 130.561 1052.28 131.343 1048.73 131.343ZM1049.45 123.41C1052.4 123.41 1054.95 122.328 1057.12 120.165C1059.34 118.002 1060.87 114.847 1061.72 110.7L1063.25 103.218C1063.37 102.738 1063.46 102.197 1063.52 101.596C1063.58 100.995 1063.61 100.364 1063.61 99.7028C1063.61 96.8182 1062.83 94.5346 1061.27 92.852C1059.76 91.1092 1057.51 90.2378 1054.5 90.2378C1051.56 90.2378 1048.97 91.3195 1046.75 93.4829C1044.58 95.6464 1043.08 98.8013 1042.24 102.948L1040.71 110.43C1040.59 110.971 1040.5 111.541 1040.44 112.142C1040.38 112.683 1040.35 113.284 1040.35 113.945C1040.35 116.83 1041.1 119.143 1042.6 120.886C1044.16 122.569 1046.45 123.41 1049.45 123.41Z" fill="#F55995"/>
<path d="M992.831 83.3871H1014.74C1018.47 83.3871 1021.38 84.3185 1023.49 86.1815C1025.59 87.9843 1026.64 90.4782 1026.64 93.6633C1026.64 96.7882 1025.65 99.4023 1023.67 101.506C1021.68 103.609 1019.07 104.961 1015.82 105.562L1015.73 105.923C1018.5 106.403 1020.54 107.425 1021.86 108.987C1023.19 110.55 1023.85 112.443 1023.85 114.666C1023.85 116.77 1023.46 118.753 1022.68 120.616C1021.95 122.479 1020.9 124.131 1019.52 125.574C1018.14 127.016 1016.45 128.158 1014.47 128.999C1012.49 129.84 1010.29 130.261 1007.89 130.261H983.453L992.831 83.3871ZM1006.36 122.869C1008.52 122.869 1010.26 122.389 1011.59 121.427C1012.91 120.466 1013.78 119.113 1014.2 117.371C1014.32 116.77 1014.41 116.169 1014.47 115.568C1014.59 114.907 1014.65 114.396 1014.65 114.035C1014.65 112.533 1014.14 111.421 1013.12 110.7C1012.16 109.919 1010.8 109.528 1009.06 109.528H996.798L994.093 122.869H1006.36ZM1009.51 102.948C1011.38 102.948 1013 102.497 1014.38 101.596C1015.82 100.634 1016.73 99.192 1017.09 97.269C1017.21 96.7882 1017.3 96.3074 1017.36 95.8267C1017.42 95.2858 1017.45 94.8351 1017.45 94.4746C1017.45 93.2727 1016.97 92.3712 1016 91.7703C1015.04 91.1092 1013.75 90.7787 1012.13 90.7787H1000.59L998.151 102.948H1009.51Z" fill="#F55995"/>
<path d="M955.785 131.343C950.495 131.343 946.227 129.69 942.981 126.385C939.735 123.08 938.112 118.272 938.112 111.962C938.112 107.936 938.713 104.12 939.915 100.514C941.118 96.9083 942.771 93.7534 944.875 91.0491C947.039 88.3448 949.594 86.2115 952.539 84.649C955.484 83.0865 958.73 82.3053 962.277 82.3053C967.567 82.3053 971.835 83.9579 975.081 87.2631C978.327 90.5683 979.95 95.3759 979.95 101.686C979.95 105.772 979.349 109.618 978.147 113.224C976.944 116.77 975.261 119.895 973.097 122.599C970.993 125.303 968.469 127.437 965.523 128.999C962.578 130.561 959.332 131.343 955.785 131.343ZM956.506 123.41C959.452 123.41 962.007 122.328 964.171 120.165C966.395 118.002 967.928 114.847 968.769 110.7L970.302 103.218C970.422 102.738 970.512 102.197 970.572 101.596C970.633 100.995 970.663 100.364 970.663 99.7028C970.663 96.8182 969.881 94.5346 968.318 92.852C966.815 91.1092 964.561 90.2378 961.556 90.2378C958.61 90.2378 956.025 91.3195 953.801 93.4829C951.637 95.6464 950.134 98.8013 949.293 102.948L947.76 110.43C947.64 110.971 947.55 111.541 947.49 112.142C947.429 112.683 947.399 113.284 947.399 113.945C947.399 116.83 948.151 119.143 949.654 120.886C951.216 122.569 953.501 123.41 956.506 123.41Z" fill="#F55995"/>
<path d="M897.418 83.3871H906.796L903.009 102.317H921.493L925.28 83.3871H934.658L925.28 130.261H915.903L919.87 110.159H901.386L897.418 130.261H888.041L897.418 83.3871Z" fill="#F55995"/>
<path d="M859.667 106.554L861.109 99.1621H883.741L882.299 106.554H859.667Z" fill="#FCD06B"/>
<path d="M831.37 131.34C828.305 131.34 825.539 130.799 823.075 129.718C820.61 128.636 818.506 127.074 816.763 125.03C815.02 122.927 813.667 120.373 812.705 117.368C811.744 114.364 811.263 110.968 811.263 107.182C811.263 103.396 811.744 100.031 812.705 97.0863C813.667 94.0816 815.02 91.5576 816.763 89.5144C818.506 87.411 820.61 85.8185 823.075 84.7368C825.539 83.595 828.305 83.0241 831.37 83.0241C834.436 83.0241 837.201 83.595 839.666 84.7368C842.13 85.8185 844.234 87.411 845.977 89.5144C847.721 91.5576 849.073 94.0816 850.035 97.0863C850.997 100.031 851.478 103.396 851.478 107.182C851.478 110.968 850.997 114.364 850.035 117.368C849.073 120.373 847.721 122.927 845.977 125.03C844.234 127.074 842.13 128.636 839.666 129.718C837.201 130.799 834.436 131.34 831.37 131.34ZM831.37 126.743C835.879 126.743 839.425 125.331 842.01 122.506C844.655 119.682 845.977 115.535 845.977 110.067V104.298C845.977 98.8891 844.655 94.7727 842.01 91.9482C839.425 89.0636 835.879 87.6214 831.37 87.6214C826.862 87.6214 823.285 89.0336 820.64 91.858C818.055 94.6825 816.763 98.8291 816.763 104.298V110.067C816.763 115.475 818.055 119.622 820.64 122.506C823.285 125.331 826.862 126.743 831.37 126.743Z" fill="#FF582D"/>
<path d="M766.153 84.1059H800.867V130.259H795.728V88.613H771.292V130.259H766.153V84.1059Z" fill="#FF582D"/>
<path d="M694.475 83.2024H706.017V90.9547H706.378C707.219 88.2504 708.812 86.117 711.156 84.5546C713.501 82.932 716.236 82.1207 719.362 82.1207C725.373 82.1207 729.941 84.2541 733.067 88.5208C736.253 92.7275 737.846 98.767 737.846 106.639C737.846 114.572 736.253 120.672 733.067 124.938C729.941 129.205 725.373 131.338 719.362 131.338C716.236 131.338 713.501 130.527 711.156 128.905C708.872 127.282 707.279 125.119 706.378 122.414H706.017V148.285H694.475V83.2024ZM715.665 121.783C718.67 121.783 721.105 120.792 722.968 118.809C724.832 116.825 725.764 114.151 725.764 110.786V102.673C725.764 99.3078 724.832 96.6336 722.968 94.6505C721.105 92.6073 718.67 91.5857 715.665 91.5857C712.9 91.5857 710.585 92.2767 708.722 93.6589C706.919 95.0411 706.017 96.874 706.017 99.1576V114.121C706.017 116.585 706.919 118.478 708.722 119.8C710.585 121.122 712.9 121.783 715.665 121.783Z" fill="#00B694"/>
<path d="M642.587 83.2024H653.858V104.206L652.866 115.203H653.227L658.727 105.197L673.424 83.2024H683.793V130.257H672.523V109.254L673.514 98.166H673.154L667.653 108.262L652.956 130.257H642.587V83.2024Z" fill="#00B694"/>
<path d="M580.748 83.2024H594.003L606.446 103.935H606.806L619.069 83.2024H631.963V130.257H620.782V97.4449H620.422L617.176 103.575L606.355 121.423L595.535 103.575L592.289 97.4449H591.929V130.257H580.748V83.2024Z" fill="#00B694"/>
<path d="M551.484 130.258C548.779 130.258 546.826 129.537 545.623 128.095C544.481 126.653 543.76 124.85 543.459 122.686H543.008C541.987 125.571 540.303 127.734 537.959 129.177C535.615 130.619 532.819 131.34 529.573 131.34C524.644 131.34 520.797 130.078 518.032 127.554C515.327 125.03 513.974 121.605 513.974 117.278C513.974 112.891 515.567 109.526 518.753 107.182C521.999 104.838 527.019 103.666 533.811 103.666H543.008V99.0692C543.008 95.764 542.107 93.24 540.303 91.4972C538.5 89.7545 535.735 88.8831 532.008 88.8831C529.183 88.8831 526.808 89.5141 524.885 90.7761C523.021 92.0381 521.458 93.7208 520.196 95.8241L515.868 91.7677C517.13 89.2437 519.144 87.1103 521.909 85.3676C524.674 83.5647 528.161 82.6633 532.369 82.6633C538.019 82.6633 542.407 84.0455 545.533 86.8098C548.659 89.5742 550.222 93.4203 550.222 98.3481V123.948H555.542V130.258H551.484ZM530.746 125.21C532.549 125.21 534.202 125 535.705 124.579C537.208 124.159 538.5 123.558 539.582 122.777C540.664 121.995 541.506 121.094 542.107 120.072C542.708 119.051 543.008 117.939 543.008 116.737V109.075H533.451C529.303 109.075 526.267 109.676 524.344 110.878C522.48 112.08 521.548 113.822 521.548 116.106V117.999C521.548 120.283 522.36 122.055 523.983 123.317C525.666 124.579 527.92 125.21 530.746 125.21Z" fill="#BA93DF"/>
<path d="M467.367 83.745H474.581V103.126H497.844V83.745H505.058V130.258H497.844V109.436H474.581V130.258H467.367V83.745Z" fill="#BA93DF"/>
<path d="M399.534 84.1057H404.583V114.033L404.042 123.318H404.403L409.182 115.115L430.642 84.1057H435.421V130.258H430.371V100.331L430.912 91.0466H430.552L425.683 99.2495L404.223 130.258H399.534V84.1057Z" fill="#444795"/>
<path d="M349.67 84.1057H354.81V104.027H380.418V84.1057H385.557V130.258H380.418V108.534H354.81V130.258H349.67V84.1057Z" fill="#444795"/>
<path d="M299.869 125.751H305.008L309.878 115.655C310.899 113.372 312.342 112.05 314.206 111.689V111.419C310.058 111.118 306.902 109.796 304.738 107.452C302.634 105.049 301.582 101.924 301.582 98.0777C301.582 93.7509 302.875 90.3555 305.459 87.8916C308.044 85.3676 311.681 84.1057 316.37 84.1057H335.666V130.258H330.526V111.869H317.181L310.509 125.751C309.727 127.494 308.856 128.696 307.894 129.357C306.992 129.958 305.94 130.258 304.738 130.258H299.869V125.751ZM330.526 107.452V88.6128H317.091C313.845 88.6128 311.38 89.3339 309.697 90.7762C308.014 92.2185 307.173 94.2016 307.173 96.7256V99.4298C307.173 101.954 308.014 103.937 309.697 105.379C311.38 106.761 313.845 107.452 317.091 107.452H330.526Z" fill="#444795"/>
<path d="M249.584 125.751H255.354C256.196 124.67 256.977 123.378 257.699 121.875C258.48 120.313 259.141 118.42 259.682 116.196C260.223 113.913 260.644 111.238 260.945 108.174C261.245 105.109 261.395 101.533 261.395 97.4467V84.1057H290.7V130.258H285.56V88.6128H266.355V97.627C266.355 102.074 266.144 105.98 265.724 109.345C265.363 112.711 264.852 115.625 264.191 118.089C263.59 120.493 262.868 122.506 262.027 124.129C261.185 125.751 260.313 127.013 259.412 127.915C258.51 128.756 257.518 129.357 256.436 129.718C255.414 130.078 254.212 130.258 252.83 130.258H249.584V125.751Z" fill="#444795"/>
<path d="M223.502 84.1057H251.815V88.6128H228.642V130.258H223.502V84.1057Z" fill="#444795"/>
<path d="M193.743 131.34C189.234 131.34 185.628 130.559 182.923 128.996C180.218 127.374 178.024 125.12 176.34 122.236L180.218 119.261C181.54 121.665 183.313 123.528 185.538 124.85C187.762 126.112 190.497 126.743 193.743 126.743C197.71 126.743 200.776 125.962 202.94 124.399C205.104 122.837 206.186 120.794 206.186 118.27V116.827C206.186 114.183 205.254 112.17 203.391 110.788C201.527 109.345 198.942 108.624 195.636 108.624H186.079V104.297H195.095C198.161 104.297 200.596 103.576 202.399 102.134C204.262 100.692 205.194 98.7988 205.194 96.4551V95.1931C205.194 92.9095 204.262 91.0766 202.399 89.6944C200.535 88.3123 197.74 87.6212 194.013 87.6212C190.647 87.6212 187.912 88.2822 185.808 89.6043C183.764 90.8663 182.081 92.6391 180.759 94.9227L177.242 92.1283C178.685 89.424 180.729 87.2306 183.374 85.5479C186.079 83.8652 189.685 83.0239 194.194 83.0239C199.664 83.0239 203.751 84.1056 206.456 86.269C209.222 88.4324 210.604 91.4071 210.604 95.1931C210.604 98.2579 209.793 100.662 208.17 102.404C206.607 104.147 204.383 105.319 201.497 105.92V106.281C204.743 106.761 207.238 107.933 208.981 109.796C210.785 111.659 211.686 114.183 211.686 117.368C211.686 121.695 210.093 125.12 206.907 127.644C203.721 130.108 199.333 131.34 193.743 131.34Z" fill="#444795"/>
<path d="M127.486 67.3392H152.102C157.031 67.3392 160.879 68.7514 163.644 71.5759C166.469 74.3402 167.882 78.2163 167.882 83.2042C167.882 85.3676 167.581 87.2606 166.98 88.8832C166.439 90.5057 165.718 91.8579 164.816 92.9396C163.914 94.0213 162.862 94.8927 161.66 95.5537C160.518 96.2147 159.376 96.6655 158.234 96.9058V97.2664C159.676 97.4467 161.119 97.8974 162.562 98.6185C164.004 99.2796 165.297 100.241 166.439 101.503C167.581 102.705 168.513 104.237 169.234 106.1C169.956 107.903 170.316 110.037 170.316 112.5C170.316 115.085 169.925 117.458 169.144 119.622C168.423 121.785 167.341 123.678 165.898 125.301C164.515 126.863 162.832 128.095 160.849 128.996C158.925 129.838 156.761 130.258 154.356 130.258H127.486V67.3392ZM132.897 125.481H152.914C156.701 125.481 159.586 124.459 161.57 122.416C163.554 120.313 164.545 117.609 164.545 114.303V110.968C164.545 107.723 163.554 105.079 161.57 103.036C159.586 100.932 156.701 99.8805 152.914 99.8805H132.897V125.481ZM132.897 95.1931H151.561C154.988 95.1931 157.603 94.2917 159.406 92.4889C161.209 90.6259 162.111 88.2522 162.111 85.3676V81.9422C162.111 79.0577 161.209 76.714 159.406 74.9111C157.603 73.0482 154.988 72.1167 151.561 72.1167H132.897V95.1931Z" fill="#444795"/>
<path d="M27.2162 0H54.4324V27.9386H81.6487V55.8772H54.4324V27.9386H27.2162V0ZM0 55.8772V27.9386H27.2162V55.8772H0ZM81.6487 27.9386V0H108.865V27.9386H81.6487Z" fill="#444795"/>
<path d="M1222.92 172.283C1222.92 173.363 1222.18 175.914 1220.69 179.938C1219.2 183.961 1217.22 188.671 1214.74 194.069C1212.36 199.466 1209.59 205.158 1206.41 211.144C1203.24 217.13 1200.02 222.626 1196.75 227.63C1193.47 232.635 1190.25 236.806 1187.08 240.142C1184.01 243.381 1181.23 245 1178.75 245C1177.56 245 1176.07 244.657 1174.29 243.97C1172.5 243.283 1170.77 242.449 1169.08 241.467C1167.5 240.388 1166.11 239.259 1164.92 238.082C1163.73 236.806 1163.14 235.579 1163.14 234.402C1163.14 233.42 1164.13 231.016 1166.11 227.189C1168.19 223.263 1170.72 218.259 1173.69 212.174C1176.67 205.992 1179.84 198.926 1183.21 190.978C1186.58 183.029 1189.56 174.491 1192.14 165.365C1192.73 163.402 1193.57 161.881 1194.66 160.801C1195.75 159.624 1197.24 159.035 1199.13 159.035C1200.91 159.035 1203.14 159.428 1205.82 160.213C1208.5 160.9 1211.07 161.881 1213.55 163.157C1216.13 164.334 1218.31 165.708 1220.1 167.278C1221.98 168.848 1222.92 170.517 1222.92 172.283ZM1272 172.283C1272 173.363 1271.26 175.914 1269.77 179.938C1268.28 183.961 1266.3 188.671 1263.82 194.069C1261.44 199.466 1258.66 205.158 1255.49 211.144C1252.32 217.13 1249.1 222.626 1245.82 227.63C1242.55 232.635 1239.33 236.806 1236.16 240.142C1233.08 243.381 1230.31 245 1227.83 245C1226.64 245 1225.15 244.657 1223.37 243.97C1221.58 243.283 1219.85 242.449 1218.16 241.467C1216.58 240.388 1215.19 239.259 1214 238.082C1212.81 236.806 1212.21 235.579 1212.21 234.402C1212.21 233.42 1213.21 231.016 1215.19 227.189C1217.27 223.263 1219.8 218.259 1222.77 212.174C1225.75 205.992 1228.92 198.926 1232.29 190.978C1235.66 183.029 1238.64 174.491 1241.21 165.365C1241.81 163.402 1242.65 161.881 1243.74 160.801C1244.83 159.624 1246.32 159.035 1248.2 159.035C1249.99 159.035 1252.22 159.428 1254.9 160.213C1257.57 160.9 1260.15 161.881 1262.63 163.157C1265.21 164.334 1267.39 165.708 1269.17 167.278C1271.06 168.848 1272 170.517 1272 172.283Z" fill="#BA93DF"/>
</svg>
