<svg width="104" height="104" viewBox="0 0 104 104" fill="none" xmlns="http://www.w3.org/2000/svg">
<rect x="1" y="1" width="102" height="102" rx="51" fill="white"/>
<rect x="1" y="1" width="102" height="102" rx="51" stroke="#F2F2F2" stroke-width="2"/>
<path d="M76.9082 35.2728C77.0311 35.6106 77.1234 36.0098 77.1848 36.4705C77.7074 40.5241 78.3376 44.2554 79.0754 47.6641C79.8131 51.0729 80.5355 54.0517 81.2425 56.6006C81.9496 59.1188 82.549 61.161 83.0408 62.7272C83.5634 64.2934 83.8401 65.2761 83.8708 65.6753C83.9016 66.2588 83.7171 66.8423 83.3175 67.4258C82.9179 68.0093 82.3953 68.5313 81.7498 68.992C81.1042 69.4526 80.3972 69.8365 79.6287 70.1436C78.8602 70.4507 78.1532 70.635 77.5076 70.6964C76.985 70.7271 76.5393 70.6657 76.1704 70.5121C75.7708 70.3586 75.4788 70.0668 75.2943 69.6369C75.0791 69.1455 74.8793 68.6235 74.6949 68.0707C74.5104 67.4872 74.326 66.8116 74.1416 66.0439C73.8649 64.9383 73.5729 64.3855 73.2655 64.3855C72.9273 64.4163 72.5738 64.9537 72.2049 65.9978C71.7131 67.4412 71.1444 68.6542 70.4989 69.6369C69.8841 70.6196 69.177 71.4027 68.3778 71.9862C67.6093 72.6004 66.7947 73.0457 65.9339 73.3221C65.104 73.5984 64.2125 73.7673 63.2596 73.8288C60.37 74.0437 57.8339 73.1071 55.6514 71.0188C53.4688 68.8999 51.6551 65.7368 50.2104 61.5295C49.9952 61.0382 49.8261 60.7311 49.7031 60.6083C49.5802 60.4854 49.4418 60.424 49.2881 60.424C49.1344 60.4547 48.9807 60.5468 48.827 60.7004C48.6733 60.8539 48.535 61.1457 48.412 61.5756C47.828 63.6332 47.0902 65.3836 46.1988 66.827C45.338 68.301 44.4005 69.5141 43.386 70.4661C42.4023 71.4181 41.3726 72.1397 40.2966 72.6311C39.2207 73.1224 38.1756 73.3988 37.1612 73.4602C35.3167 73.6138 33.5799 73.061 31.9507 71.8019C30.3215 70.5428 28.8152 68.5467 27.4319 65.8135C26.0178 63.0804 24.7114 59.5795 23.5125 55.3108C22.3137 51.0422 21.1916 45.9597 20.1465 40.0635C20.0235 38.4052 20.4539 37.2075 21.4376 36.4705C22.3905 35.7334 23.7431 35.3035 25.4953 35.1807C26.6326 35.0885 27.5395 35.2574 28.2158 35.6874C28.892 36.148 29.307 36.7776 29.4607 37.576C30.1678 41.7832 30.8902 45.5298 31.6279 48.8157C32.3657 52.1017 33.0881 54.8655 33.7951 57.1073C34.5329 59.3492 35.2706 61.0382 36.0084 62.1744C36.7769 63.3414 37.5608 63.8942 38.36 63.8328C38.7596 63.8021 39.2361 63.4643 39.7894 62.8193C40.3428 62.2052 40.8961 61.0996 41.4494 59.5027C42.0027 57.9058 42.5407 55.7408 43.0633 53.0076C43.5858 50.2745 44.0316 46.7889 44.4005 42.551C44.4927 41.384 44.9845 40.4627 45.876 39.7871C46.7675 39.0808 47.8895 38.6816 49.242 38.5894C50.8098 38.4666 51.9011 38.6355 52.5159 39.0961C53.1614 39.5261 53.561 40.3245 53.7147 41.4915C53.9914 43.5183 54.3449 45.5145 54.7753 47.4799C55.2364 49.476 55.7436 51.3646 56.2969 53.1458C56.881 54.927 57.4804 56.5699 58.0952 58.0747C58.7407 59.5795 59.4017 60.8846 60.0779 61.9902C60.7542 63.0957 61.4151 63.9556 62.0607 64.5698C62.737 65.1533 63.3671 65.4297 63.9512 65.399C64.7197 65.3375 65.4267 64.7387 66.0723 63.6024C66.6871 62.4662 67.2097 60.9 67.64 58.9039C68.0704 56.9077 68.347 54.5124 68.47 51.7178C68.593 48.9539 68.5161 45.8676 68.2395 42.4588C68.2087 41.8754 68.1626 41.3072 68.1011 40.7545C68.0089 40.2017 67.9474 39.6182 67.9167 39.004C67.8245 38.0827 67.9013 37.315 68.1472 36.7008C68.3932 36.0866 68.7774 35.5952 69.3 35.2267C69.8226 34.8582 70.422 34.5818 71.0983 34.3976C71.8053 34.2133 72.5738 34.0905 73.4038 34.029C74.1723 33.9676 74.7871 33.983 75.2482 34.0751C75.7093 34.1365 76.0782 34.2594 76.3549 34.4436C76.6008 34.6586 76.7852 34.935 76.9082 35.2728Z" fill="#BA93DF"/>
</svg>
