<svg width="72" height="72" viewBox="0 0 72 72" fill="none" xmlns="http://www.w3.org/2000/svg">
<g clip-path="url(#clip0_662_303)">
<path d="M36 72C55.8823 72 72 55.8823 72 36C72 16.1177 55.8823 0 36 0C16.1177 0 0 16.1177 0 36C0 55.8823 16.1177 72 36 72Z" fill="url(#paint0_linear_662_303)"/>
<path fill-rule="evenodd" clip-rule="evenodd" d="M16.2956 35.6199C26.7903 31.0475 33.7885 28.033 37.2899 26.5767C47.2875 22.4184 49.365 21.696 50.7189 21.6721C51.0168 21.6669 51.6826 21.7408 52.1139 22.0908C52.7538 22.61 52.7574 23.7369 52.6864 24.4828C52.1446 30.1753 49.8003 43.9893 48.6077 50.365C48.103 53.0627 47.1093 53.9674 46.1475 54.0558C44.0569 54.2482 42.4694 52.6742 40.4446 51.347C37.2761 49.2699 35.4861 47.977 32.4105 45.9503C28.8562 43.6081 31.1604 42.3208 33.1859 40.2169C33.7161 39.6664 42.9272 31.2881 43.1055 30.528C43.1278 30.4329 43.1485 30.0785 42.938 29.8915C42.7275 29.7045 42.4168 29.7683 42.1927 29.8192C41.8749 29.8914 36.8132 33.237 27.0077 39.8559C25.5709 40.8425 24.2696 41.3232 23.1037 41.298C21.8182 41.2703 19.3457 40.5713 17.5076 39.9738C15.2531 39.241 13.4613 38.8534 13.6174 37.6089C13.6987 36.9605 14.5914 36.2975 16.2956 35.6199Z" fill="white"/>
</g>
<defs>
<linearGradient id="paint0_linear_662_303" x1="36" y1="0" x2="36" y2="71.4375" gradientUnits="userSpaceOnUse">
<stop stop-color="#2AABEE"/>
<stop offset="1" stop-color="#229ED9"/>
</linearGradient>
<clipPath id="clip0_662_303">
<rect width="72" height="72" fill="white"/>
</clipPath>
</defs>
</svg>
