<svg width="72" height="72" viewBox="0 0 72 72" fill="none" xmlns="http://www.w3.org/2000/svg">
<rect width="72" height="72" rx="36" fill="#FEEBEF"/>
<path d="M46.4328 19.5512C43.218 19.5512 40.903 22.0894 40.903 25.2205C40.903 28.3515 43.218 30.8898 46.4328 30.8898C48.2548 30.8898 49.8039 30.0402 50.8713 28.7638L52.9833 30.4048C51.4357 32.2575 49.0762 33.5827 46.4328 33.5827C42.0624 33.5827 37.9925 30.3274 37.9925 25.2205C37.9925 20.5387 41.7714 17 46.4328 17C48.7061 17 51.0168 17.9213 52.3993 19.2677V23.0945H49.7799V20.4724C48.8287 19.8134 47.6891 19.5512 46.4328 19.5512Z" fill="black"/>
<path d="M19.3657 17.4252H24.459L28.4651 29.264L32.6082 17.4252H37.2649V19.9764H34.5914L29.6978 33.4409H27.0784L22.1847 19.9764H19.3657V17.4252Z" fill="black"/>
<path d="M44.6138 50.4488C47.7571 50.4488 49.0522 47.4016 49.0522 45.2756L49.0522 39.3937H46.1418V36.8425H51.8172V50.0236H54V52.5748H49.7071L49.2705 50.0236C48.8097 51.0157 47.1896 53 44.3955 53C39.5933 53 38.7202 48.8898 38.7202 47.0472C38.7202 45.2047 38.7201 39.3937 38.7201 39.3937H36.2463V36.8425H41.4851V46.3497C41.5348 48.1237 41.9999 50.4488 44.6138 50.4488Z" fill="black"/>
<path d="M25.6231 36.8425H20.5299V39.252H23.1493V50.0236H20.5299V52.5748H32.7537V50.0236H25.9142V44.3543C25.9142 42.2283 27.1948 39.252 30.5709 39.252V41.5197H33.1903V36.8425H30.5709C28.8559 36.8425 26.3676 38.3489 25.6231 40.3051V36.8425Z" fill="black"/>
<path d="M17.7649 49.8819H15V52.5748H17.7649V49.8819Z" fill="black"/>
</svg>
