<svg width="16" height="16" viewBox="0 0 16 16" fill="none" xmlns="http://www.w3.org/2000/svg">
<rect width="16" height="16" rx="8" fill="white"/>
<path d="M12.6887 4.92407C12.7119 4.98339 12.7292 5.05348 12.7408 5.13437C12.8392 5.84613 12.9578 6.50128 13.0967 7.09981C13.2356 7.69834 13.3715 8.22138 13.5046 8.66893C13.6377 9.11109 13.7506 9.46967 13.8431 9.74467C13.9415 10.0197 13.9936 10.1922 13.9994 10.2623C14.0052 10.3648 13.9704 10.4672 13.8952 10.5697C13.82 10.6721 13.7216 10.7638 13.6001 10.8447C13.4786 10.9256 13.3455 10.993 13.2008 11.0469C13.0562 11.1008 12.9231 11.1331 12.8016 11.1439C12.7032 11.1493 12.6193 11.1385 12.5498 11.1116C12.4746 11.0846 12.4197 11.0334 12.3849 10.9579C12.3444 10.8716 12.3068 10.78 12.2721 10.6829C12.2374 10.5805 12.2027 10.4618 12.1679 10.327C12.1159 10.1329 12.0609 10.0358 12.003 10.0358C11.9394 10.0412 11.8728 10.1356 11.8034 10.3189C11.7108 10.5724 11.6037 10.7854 11.4822 10.9579C11.3665 11.1305 11.2334 11.268 11.083 11.3704C10.9383 11.4782 10.785 11.5564 10.6229 11.605C10.4667 11.6535 10.2989 11.6832 10.1195 11.6939C9.57556 11.7317 9.09817 11.5672 8.68733 11.2006C8.27648 10.8285 7.93507 10.2731 7.66311 9.53437C7.6226 9.4481 7.59077 9.39418 7.56763 9.37261C7.54448 9.35104 7.51844 9.34025 7.48951 9.34025C7.46058 9.34565 7.43164 9.36182 7.40271 9.38878C7.37378 9.41574 7.34774 9.46697 7.32459 9.54246C7.21465 9.90374 7.07577 10.2111 6.90796 10.4645C6.74594 10.7233 6.56945 10.9363 6.37849 11.1035C6.19332 11.2706 5.99947 11.3974 5.79694 11.4836C5.59441 11.5699 5.39767 11.6184 5.20671 11.6292C4.85952 11.6562 4.53258 11.5591 4.22589 11.3381C3.91921 11.117 3.63567 10.7665 3.37527 10.2866C3.10909 9.80668 2.86316 9.19197 2.63749 8.44246C2.41181 7.69295 2.2006 6.80054 2.00386 5.76525C1.98071 5.47407 2.06172 5.26378 2.24689 5.13437C2.42628 5.00495 2.68088 4.92946 3.01072 4.9079C3.22482 4.89172 3.39552 4.92138 3.52283 4.99687C3.65013 5.07775 3.72825 5.18829 3.75718 5.32848C3.89027 6.06721 4.02626 6.72506 4.16514 7.30202C4.30401 7.87898 4.44 8.36427 4.57309 8.7579C4.71196 9.15153 4.85084 9.4481 4.98972 9.64761C5.13438 9.85251 5.28194 9.94957 5.43239 9.93878C5.50761 9.93339 5.59731 9.87408 5.70146 9.76084C5.80562 9.653 5.90978 9.45888 6.01394 9.17849C6.1181 8.8981 6.21936 8.51795 6.31773 8.03805C6.4161 7.55814 6.50001 6.94613 6.56945 6.20201C6.58681 5.99711 6.67939 5.83535 6.8472 5.71672C7.01501 5.5927 7.22622 5.5226 7.48083 5.50643C7.77594 5.48486 7.98137 5.51451 8.0971 5.5954C8.21861 5.67089 8.29384 5.81108 8.32277 6.01599C8.37485 6.37187 8.4414 6.72236 8.52241 7.06746C8.60921 7.41795 8.70469 7.74957 8.80884 8.06231C8.91879 8.37506 9.03163 8.66354 9.14736 8.92775C9.26887 9.19197 9.39329 9.42114 9.52059 9.61526C9.64789 9.80937 9.7723 9.96035 9.89382 10.0682C10.0211 10.1706 10.1398 10.2192 10.2497 10.2138C10.3944 10.203 10.5274 10.0979 10.649 9.89834C10.7647 9.69883 10.8631 9.42383 10.9441 9.07334C11.0251 8.72285 11.0772 8.30226 11.1003 7.81158C11.1235 7.32628 11.109 6.78437 11.0569 6.18584C11.0511 6.08339 11.0425 5.98363 11.0309 5.88657C11.0135 5.78951 11.0019 5.68706 10.9962 5.57922C10.9788 5.41746 10.9933 5.28265 11.0396 5.17481C11.0859 5.06696 11.1582 4.98069 11.2566 4.91598C11.3549 4.85128 11.4678 4.80275 11.5951 4.7704C11.7282 4.73804 11.8728 4.71647 12.0291 4.70569C12.1737 4.69491 12.2895 4.6976 12.3763 4.71378C12.4631 4.72456 12.5325 4.74613 12.5846 4.77848C12.6309 4.81623 12.6656 4.86476 12.6887 4.92407Z" fill="#BA93DF"/>
</svg>
